<svg version="1.1" xmlns="http://www.w3.org/2000/svg" style="display: block;" viewBox="0 0 2048 2048" width="640" height="640">
<path transform="translate(0,0)" fill="rgb(0,0,0)" d="M 1494.25 1758.01 L 572.579 1758.53 C 423.334 1758.38 305.085 1657.57 293.651 1504.97 C 292.028 1483.31 293.22 1460.74 293.212 1438.99 L 293.149 586.998 C 293.152 570.942 292.224 553.906 294.637 538 C 314.796 405.127 418.851 309.309 553.714 300.435 L 1466.95 300.079 C 1480.97 300.109 1495.58 299.437 1509.5 301.048 C 1620.26 313.866 1713.69 392.167 1743.26 500.503 C 1746.91 513.904 1748.51 527.337 1751.21 540.868 L 1753.28 1469.06 C 1753.27 1491.43 1753.32 1512.81 1749.42 1534.94 C 1727.48 1659.41 1621.86 1754.59 1494.25 1758.01 z M 593.745 429.538 C 567.804 429.543 544.536 430.083 519.712 438.454 C 466.474 456.407 427.022 506.073 422.758 562.313 C 421.119 583.931 422.231 606.409 422.21 628.099 L 422.118 1461.86 C 422.128 1478.58 420.557 1498.24 424.542 1514.57 C 442.602 1588.56 499.548 1629.09 573.177 1629.23 L 1459.63 1629.24 C 1471.61 1629.26 1484.14 1629.9 1496.04 1628.85 C 1558.09 1623.34 1605.4 1578.3 1621.25 1519.5 C 1625.69 1503.06 1624.56 1485.42 1624.58 1468.5 L 1624.29 571.074 C 1622.03 502.073 1568.54 439.725 1499.24 430.429 C 1485.7 428.612 1471.16 429.49 1457.5 429.49 L 593.745 429.538 z"/>
<path transform="translate(0,0)" fill="rgb(0,0,0)" d="M 1408.47 730.922 C 1294.68 732.89 1283.58 570.994 1400.19 561.407 C 1503.57 555.879 1525.34 715.739 1408.47 730.922 z"/>
<path transform="translate(0,0)" fill="rgb(0,0,0)" d="M 1040.42 1330.8 C 864.365 1340.56 723.398 1198.46 725.063 1025.5 C 726.591 866.731 854.526 741.107 1010.68 730.438 C 1149.24 719.843 1276.25 818.642 1313.73 949.39 C 1359.42 1108.81 1263.84 1279.79 1101.11 1321.91 C 1081.21 1327.07 1060.87 1329.32 1040.42 1330.8 z M 1009.94 861.402 C 854.481 877.135 798.958 1069.34 921.352 1165.49 C 955.974 1192.69 995.826 1202.12 1039.23 1199.89 C 1193.12 1183.04 1253.56 992.277 1126.15 894.297 C 1090.8 867.108 1053.85 858.628 1009.94 861.402 z"/>
</svg>