<svg version="1.1" xmlns="http://www.w3.org/2000/svg" style="display: block;" viewBox="0 0 2048 2048" width="640" height="640">
<path transform="translate(0,0)" fill="rgb(0,0,0)" d="M 547.653 424.348 C 697.086 424.364 898.253 424.946 987.338 567.797 C 1107.12 438.631 1247.87 424.293 1410.85 424.202 L 1436.83 424.172 C 1442.6 424.123 1450.09 423.062 1455.25 425.869 L 1456.5 426.618 C 1474.49 437.19 1474.8 449.78 1474.89 468.225 L 1474.98 512.981 L 1553.26 512.943 C 1565.25 512.923 1578.66 511.752 1590.51 513.306 C 1621.45 517.369 1651.78 546.088 1656.48 577.492 C 1659.04 594.595 1655.7 613.022 1655.43 630.205 L 1655.05 696.067 C 1654.98 722.253 1652.3 747.811 1652.15 773.96 L 1651.42 861 C 1651.06 868.502 1649.91 875.992 1649.82 883.5 L 1648.39 1010 C 1672.09 1009.3 1699.14 1005.7 1721.5 1015.01 C 1764.18 1032.78 1775.84 1068.16 1780.19 1110 L 1826.13 1462.42 C 1829.96 1492.16 1840.62 1530.7 1827.79 1559.47 L 1827.09 1561 C 1802.37 1616.12 1752.5 1613.57 1703.62 1613.66 L 1634.75 1613.74 L 1276.08 1613.86 C 1234.67 1613.93 1202.55 1613.47 1177.96 1571.31 C 1161.85 1543.7 1170.19 1515.44 1177.6 1486.65 C 1133.49 1472.75 1120.64 1474.06 1076.37 1488.57 C 1033.12 1502.75 989.567 1512.87 944.469 1500.19 C 877.843 1481.46 886.889 1474.08 816.221 1482.8 L 454.334 1517.38 C 387.181 1524.69 308.974 1521.52 283.248 1446.29 C 273.67 1418.28 278.043 1384.77 278.052 1355.52 L 277.866 618.5 C 277.839 608.555 276.757 597.637 278.743 587.871 L 279.14 586 C 294.351 512.23 355.687 513.189 412.77 513.118 L 505.366 513.271 C 516.447 513.484 516.775 515.885 516.692 503.677 L 516.52 472.036 C 516.441 446.935 518.493 427.241 547.653 424.348 z M 449.364 573.671 L 450.549 1460.78 C 466.707 1458.72 483.566 1458.81 499.913 1457.18 L 780.896 1429.35 C 828.655 1423.1 879.229 1412.51 925.243 1432.55 L 945.5 1441.98 C 948.387 1443.26 951.549 1443.85 953.975 1445.95 L 953.552 625.193 C 941.824 616.674 897.49 591.169 886 587.936 L 884.322 587.449 C 873.11 584.788 859.5 585.92 848 585.777 L 475.069 575.407 C 466.546 575.394 457.871 574.793 449.364 573.671 z M 1525.45 577.009 L 1454.47 578.184 L 1162 589.37 C 1127.19 590.204 1094.47 588.326 1062.79 604.188 L 1029.65 620.678 C 1023.89 623.288 1017.61 624.329 1012.16 627.387 L 1013.84 1447 C 1019.03 1444.32 1025.85 1444.01 1031.46 1442.08 C 1054.07 1434.29 1075.57 1424.31 1099.08 1419.03 L 1111.49 1416.36 C 1130.13 1412.65 1166.47 1413.4 1184.62 1417.03 C 1185.74 1390.58 1190.1 1364.1 1193.38 1337.85 L 1216.82 1132.95 C 1218.59 1115.41 1218.74 1096.96 1223.2 1079.83 C 1239.45 1017.46 1298.56 1002.7 1356.94 1009.08 C 1357.53 996.564 1357.34 983.723 1358.98 971.314 C 1373.7 860.415 1512.63 804.352 1591.2 886.81 L 1595.41 709.176 C 1595.97 684.245 1602.49 595.962 1595.59 586 C 1592.81 581.99 1584.26 577.204 1579.5 576.548 L 1578.21 576.347 C 1571.51 575.415 1564.24 575.942 1557.47 575.955 L 1525.45 577.009 z M 1422.09 1071.38 C 1421.64 1080.76 1419.55 1135.64 1422.46 1139.11 C 1454.6 1147.68 1450.94 1185.16 1429.79 1196.3 L 1427.08 1197.68 C 1416.4 1203.03 1398.9 1200.9 1386.96 1200.89 C 1366.66 1200.89 1342.16 1204.27 1336.88 1178.5 L 1336.61 1177.22 C 1333.3 1160.08 1336.4 1144.18 1354.67 1140 L 1357.73 1139.25 L 1357.71 1072.79 C 1338.35 1071.95 1313.7 1069.21 1295.5 1076.33 L 1294.33 1076.77 C 1290.96 1078.12 1289.76 1080 1287.91 1083 L 1286.88 1084.66 C 1283.72 1090.46 1282.67 1097.9 1281.75 1104.4 L 1232.88 1523 C 1230 1541.73 1243.16 1548.21 1260.74 1548.64 L 1584.5 1548.88 L 1739 1548.99 C 1753.63 1549.04 1763.27 1549.55 1769.9 1533.5 L 1770.32 1532.54 C 1771.67 1529.09 1771.09 1524.98 1770.74 1521.36 L 1718.64 1111.21 C 1715.02 1079.57 1713.21 1074.42 1682.79 1072.63 L 1639.89 1071.8 L 1639.19 1138.52 C 1673.22 1151.55 1665.23 1191.74 1644.28 1198.87 C 1630.86 1203.43 1595.5 1200.93 1581.6 1199.22 C 1537.97 1193.84 1546.2 1147.9 1568 1140.75 C 1580.95 1136.5 1578.42 1140.3 1578.82 1125.72 L 1579.18 1072.96 C 1560.66 1070.93 1541.18 1072.07 1522.49 1072.03 L 1422.09 1071.38 z M 364.033 584.019 C 356.035 587.36 353.037 591.358 352.76 599.919 L 352.668 1423.51 C 352.786 1438.49 359.741 1448.34 371.055 1458.04 L 378.891 1460 L 375.791 585.404 C 373.422 583.572 367.201 583.958 364.033 584.019 z M 1496.18 911.414 C 1437.42 915.429 1421.04 959.336 1421.84 1009.25 L 1501.59 1009.61 L 1572.17 1009.12 C 1578 964.833 1556.49 918.595 1508.52 912.363 L 1496.18 911.414 z M 581.8 485.633 L 583.158 515.791 C 591.442 517.78 600.254 517.674 608.741 518.138 L 852.863 533.961 C 856.791 534.199 866.352 535.863 869.5 534.386 C 793.679 480.979 669.69 484.266 581.8 485.633 z M 1362.7 486.064 L 1315.18 488.151 C 1272.11 490.424 1153.96 504.123 1120.09 533.933 L 1168.75 530.372 L 1414.91 514.618 L 1414.31 487.01 L 1362.7 486.064 z"/>
</svg>