<svg version="1.1" xmlns="http://www.w3.org/2000/svg" style="display: block;" viewBox="0 0 2048 2048" width="512" height="512">
<path transform="translate(0,0)" fill="rgb(0,0,0)" d="M 814.763 1611.29 C 946.433 1601.01 1026.2 1745.8 947.125 1845.62 C 922.23 1877.05 885.806 1898.53 845.753 1903.2 C 835.518 1905.02 822.293 1904.71 811.975 1903.35 L 810 1903.08 C 643.525 1881.16 638.458 1636.94 814.763 1611.29 z"/>
<path transform="translate(0,0)" fill="rgb(0,0,0)" d="M 1590.95 1611.31 C 1606.78 1610.94 1621.42 1610.58 1637 1614 C 1710.92 1630.23 1771.08 1707.04 1753.08 1783.51 L 1752.72 1785 C 1739.19 1847.11 1688.08 1896.36 1623.75 1903.18 C 1502.96 1920.61 1409.61 1770.92 1485.21 1671.05 C 1512.06 1635.58 1547.41 1617.29 1590.95 1611.31 z"/>
<path transform="translate(0,0)" fill="rgb(0,0,0)" d="M 108.267 136.378 C 115.997 136.131 124.03 136.795 131.791 136.867 L 327.276 137.025 C 351.772 137.058 377.358 137.315 389.886 162.727 L 390.5 164.003 C 395.854 174.906 398.948 186.608 402.607 198.134 L 466.606 406.968 L 1911.99 407.475 C 1924.97 407.492 1940.57 406.024 1953.06 409.706 C 1982.15 418.283 1994.7 445.124 1984.75 472.887 L 1916.05 661 L 1733 1186.77 L 1700.73 1277.1 C 1689.71 1315.24 1679.1 1322.4 1642.64 1322.34 L 730.832 1322.12 C 724.579 1322.14 716.963 1321.58 710.951 1323.34 L 707.964 1324.19 C 678.117 1330.97 649.436 1353.43 642.605 1384.34 L 642.364 1385.49 C 631.382 1436.24 672.745 1482.06 722.75 1483 L 1804.83 1482.98 C 1811.98 1482.98 1820.84 1481.97 1827.74 1483.83 C 1866.55 1494.28 1871.39 1551.24 1836.14 1570.07 L 1834.5 1570.93 C 1819.02 1579.27 1749.49 1574.22 1728.5 1574.21 L 734.209 1574.34 C 719.773 1574.4 705.204 1574.63 690.881 1572.52 C 536.154 1549.67 492.518 1351.5 616.506 1261.13 L 617.456 1260.45 C 617.214 1256.04 615.118 1250.94 613.961 1246.62 L 325.549 262.424 C 317.948 237.477 324.01 229.627 298.054 229.545 L 123.44 229.597 C 113.495 229.616 102.042 230.9 92.5703 227.547 L 91 226.959 C 83.9989 224.407 74.6973 219.434 70.218 213.227 L 69.5 212.206 C 45.3348 179.298 67.9953 139.44 108.267 136.378 z M 1543.06 500.004 L 1543.19 656.379 C 1543.21 663.799 1542.77 671.543 1543.83 678.88 L 1808.36 679.844 L 1822.88 636.77 L 1868.03 500.855 L 1543.06 500.004 z M 494.099 500.006 L 545.475 678.554 L 815.959 679.407 L 816.036 500.804 L 494.099 500.006 z M 912.757 774.95 L 925.752 1017.99 L 1132.6 1017.96 L 1132.53 776.63 C 1123.67 775.016 1114.24 775.442 1105.25 775.383 L 912.757 774.95 z M 1227.27 775.576 L 1228.1 1017.83 L 1435.85 1018.21 C 1437.19 1016.6 1436.9 1016.68 1437.12 1013.25 L 1445.45 775.796 L 1227.27 775.576 z M 579.504 774.424 L 571.56 776.005 L 642.955 1017.47 C 646.407 1019.12 652.045 1018.2 655.937 1018.17 L 825.249 1017.51 L 830.661 1017.5 C 831.618 1013.35 830.292 1008 829.834 1003.77 L 823.039 927.5 C 819.252 877.109 815.812 826.206 816.028 775.656 L 603.79 775.126 C 595.965 775.1 587.223 774.308 579.504 774.424 z M 1546.78 775.46 L 1542.31 776.174 C 1541.32 784.692 1541.82 793.615 1541.79 802.19 L 1532.93 996.17 C 1532.53 1003.26 1532.75 1011.16 1530.83 1018 L 1689.44 1017.64 L 1704.98 969.772 L 1770.34 783.293 C 1770.98 781.196 1773.03 777.672 1772.73 775.631 L 1546.78 775.46 z M 911.221 500.002 L 911.188 678.985 L 1132.03 676.5 L 1132.38 499.981 L 911.221 500.002 z M 1227.74 499.999 L 1228 678.896 L 1447.9 679.016 L 1448.03 500.784 L 1227.74 499.999 z M 1227.94 1112.01 L 1227.98 1230.43 L 1406.53 1230.21 L 1408.65 1216.77 L 1423.39 1112.95 C 1420.63 1111.49 1414.91 1112.17 1411.65 1112.13 L 1227.94 1112.01 z M 939.304 1112.5 C 935.977 1119.18 942.113 1138.31 943.3 1146.56 L 957.5 1229.97 C 963.28 1231.38 970.687 1230.57 976.661 1230.56 L 1131.18 1230.85 L 1132.36 1112.64 C 1129.08 1111.15 1123.64 1111.97 1119.91 1111.97 L 939.304 1112.5 z M 670.512 1111.01 L 707.467 1232.2 C 711.311 1232.59 715.298 1231.85 719.162 1231.64 L 863.864 1230.89 L 847.189 1127.1 C 846.562 1121.99 846.771 1117.07 845.459 1112.03 L 670.512 1111.01 z M 1520.47 1111.5 L 1502.15 1230.68 L 1613.4 1230.35 L 1619.5 1212.51 L 1655.66 1114.16 C 1626.35 1110.85 1551.79 1108.66 1520.47 1111.5 z"/>
</svg>